<svg id="Layer_1" data-name="Layer 1" xmlns="http://www.w3.org/2000/svg" viewBox="0 0 480.19 480.09"><defs><style>.cls-1{fill:#a5a5db;}</style></defs><title>dance</title><g id="Outline_copy" data-name="Outline copy"><path class="cls-1" d="M266.16,221.52a8,8,0,0,0-8.87,7v.1L256,240.88a8,8,0,0,1-5.28,6.64l-53.28,18.56a8,8,0,0,0-5.36,8v71.44a8,8,0,0,0,2.32,5.68l43.36,43.52A8,8,0,0,1,240,400v72a8,8,0,0,1-16,0V406.64a8,8,0,0,0-2.32-5.68l-46.32-46.64a8,8,0,0,0-5.68-2.32H152a8,8,0,0,0-8,8v64a8,8,0,0,1-3.6,6.64l-72,48a8,8,0,0,1-8.8-13.28l64.8-43.28a8,8,0,0,0,3.6-6.64V360a8,8,0,0,0-16,0v51.12L50.72,452a24,24,0,0,0,26.56,40l72-48A24,24,0,0,0,160,424V368h6.32L208,409.92V472a24,24,0,0,0,48,0V400a24,24,0,0,0-7-17l-41-41.2V279.36l48-16.72a24,24,0,0,0,16-20l1.36-12.24a8,8,0,0,0-7-8.86Z" transform="translate(-15.81 -16)"/><path class="cls-1" d="M103,320l9-7.2V328a8,8,0,0,0,16,0V296a7.83,7.83,0,0,0-12.56-6.32L93.52,307.12a8,8,0,0,1-6.16,1.68l-48-7.28H38.08a8,8,0,0,1,3-15.6l41.2,6.24a8,8,0,0,0,6.16-1.6l41.12-32.72A27.41,27.41,0,0,1,136,256h8a8,8,0,0,0,8-8v-3.36a8,8,0,0,0-4.8-7.36,32,32,0,1,1,25.6,0,8,8,0,0,0-4.8,7.36V248a8,8,0,0,0,8,8h5a8,8,0,0,0,5.52-2.24,8.11,8.11,0,0,1,2.88-1.84l46.48-16a8,8,0,0,0,5.36-6.64l6.8-62.16a8,8,0,0,1,8.8-7,8,8,0,0,0,8.8-7.11h0a8,8,0,0,0-7-8.8A24,24,0,0,0,232,165.3v.06l-6.32,57-23.44,8a48,48,0,1,0-76.16,11.6l-3.92,1.52-1.76,1-39.2,31.2L43.44,270a24,24,0,0,0-11,46.48,29.94,29.94,0,0,0,3.84,1l48,7.28A24,24,0,0,0,103,320Z" transform="translate(-15.81 -16)"/><path class="cls-1" d="M487.52,85.68A24,24,0,0,0,468,80a24.72,24.72,0,0,0-20,24.88V208H427.76a47.87,47.87,0,1,0-78.16-9.12l-23.44-8-6.24-56A24.72,24.72,0,0,0,296,112h0a24.42,24.42,0,0,0-24,26.64l8,72a24,24,0,0,0,16,20l48,16.72v62.48L303,351a24,24,0,0,0-7,17v71.12A24.72,24.72,0,0,0,316,464a24,24,0,0,0,27.67-19.66A24.27,24.27,0,0,0,344,440V377.92L385.68,336H392V471.12A24.72,24.72,0,0,0,412,496a22.27,22.27,0,0,0,4,0,24,24,0,0,0,24-24V280a8,8,0,0,0-16,0V472a8,8,0,0,1-7.88,8.12,9.14,9.14,0,0,1-1.48-.12,8.71,8.71,0,0,1-6.64-8.8V328a8,8,0,0,0-8-8H382.32a8,8,0,0,0-5.68,2.32L330.32,369a8,8,0,0,0-2.32,5.68V440a8,8,0,0,1-7.88,8.12,9.14,9.14,0,0,1-1.48-.12,8.71,8.71,0,0,1-6.64-8.8V368a8,8,0,0,1,2.32-5.68l43.36-43.52a8,8,0,0,0,2.32-5.68V241.68a8,8,0,0,0-5.36-7.6l-53.28-18.56a8,8,0,0,1-5.28-6.64l-8-72A8,8,0,0,1,296,128a8.87,8.87,0,0,1,8,8l6.72,61.12a8,8,0,0,0,5.36,6.64l46.48,16a8.11,8.11,0,0,1,2.88,1.84,8,8,0,0,0,5.52,2.24h5a8,8,0,0,0,8-8v-3.36a8,8,0,0,0-4.8-7.36,32,32,0,1,1,25.6,0,8,8,0,0,0-4.8,7.36V216a8,8,0,0,0,8,8h40a16,16,0,0,0,16-16V104.88a8.72,8.72,0,0,1,6.56-8.8A8.07,8.07,0,0,1,480,104V208a32,32,0,0,1-32,32H432a8,8,0,0,0,0,16h16a48,48,0,0,0,48-48V104A24,24,0,0,0,487.52,85.68Z" transform="translate(-15.81 -16)"/><path class="cls-1" d="M40,112A24,24,0,0,0,64,88V64h48V81.44A24,24,0,1,0,128,104V24a8,8,0,0,0-8-8H56a8,8,0,0,0-8,8V65.44A24,24,0,1,0,40,112Zm64,0a8,8,0,1,1,8-8A8,8,0,0,1,104,112ZM64,32h48V48H64ZM40,80a8,8,0,1,1-8,8A8,8,0,0,1,40,80Z" transform="translate(-15.81 -16)"/><path class="cls-1" d="M330.08,103A23.48,23.48,0,0,0,343,106.88,24.7,24.7,0,0,0,363.28,96h0l21.44-33.76,33.76,21.52a8,8,0,0,0,11-2.4l17.2-27A8,8,0,0,0,448,48a8.37,8.37,0,0,0-3.52-5L403.84,17.28a8,8,0,0,0-11,2.4l-16.8,27L361.92,68.16a23.2,23.2,0,0,0-6-5.52A24,24,0,0,0,330.08,103Zm72-68,27,17.2-8.72,13.52-27-17.2ZM336,78.56a8,8,0,0,1,6.8-3.68,8.65,8.65,0,0,1,4.32,1.2,8.11,8.11,0,0,1,2.4,11h0a8,8,0,0,1-11,2.48h0a8,8,0,0,1-2.48-11Z" transform="translate(-15.81 -16)"/><path class="cls-1" d="M176,90.64a24,24,0,0,0,23.36,18.88,29.24,29.24,0,0,0,5.2-.56,24,24,0,0,0,15-10.48h0L245.44,58A8,8,0,1,0,232,49.36L218.24,70.8a23.22,23.22,0,0,0-5.92-5.52,24,24,0,0,0-33.12,7.28A23.25,23.25,0,0,0,176,90.64Zm16.64-9.44a8,8,0,0,1,5-3.52,6.48,6.48,0,0,1,1.76,0,8,8,0,0,1,7.94,8.06,8.11,8.11,0,0,1-1.22,4.18h0a8,8,0,0,1-13.52-8.56Z" transform="translate(-15.81 -16)"/><path class="cls-1" d="M288,80a8,8,0,0,0,8-8V40a8,8,0,0,0-16,0V72A8,8,0,0,0,288,80Z" transform="translate(-15.81 -16)"/><path class="cls-1" d="M40,176v24a8,8,0,0,0,16,0V176a8,8,0,0,0-16,0Z" transform="translate(-15.81 -16)"/><circle class="cls-1" cx="192.19" cy="128" r="8"/><circle class="cls-1" cx="152.19" cy="16" r="8"/></g></svg>