<?xml version="1.0" encoding="utf-8"?>
<!-- Generator: Adobe Illustrator 24.0.2, SVG Export Plug-In . SVG Version: 6.00 Build 0)  -->
<svg version="1.1" id="Layer_1" xmlns="http://www.w3.org/2000/svg" xmlns:xlink="http://www.w3.org/1999/xlink" x="0px" y="0px"
	 viewBox="0 0 150 150" style="enable-background:new 0 0 150 150;" xml:space="preserve">
<style type="text/css">
	.st0{fill:none;stroke:#000000;stroke-width:2.5444;stroke-miterlimit:10;}
	.st1{stroke:#000000;stroke-width:2.5444;stroke-miterlimit:10;}
	.st2{fill:none;stroke:#000000;stroke-width:10.1777;stroke-miterlimit:10;}
</style>
<g>
	<path class="st0" d="M61.68,61.74"/>
	<path class="st1" d="M64.16,54.15h15.46c1.45,0,2.63,1.18,2.63,2.63v49.88c0,1.45,1.18,2.63,2.63,2.63h1.46
		c1.93,0,3.5,1.57,3.5,3.5v0c0,1.93-1.57,3.5-3.5,3.5H64.16c-1.45,0-2.63-1.18-2.63-2.63v-2.4c0-1.43,1.14-2.59,2.56-2.62l7.01-0.17
		c1.42-0.03,2.56-1.2,2.56-2.62l0.06-40.25c0-1.32-0.98-2.44-2.29-2.61l-7.61-0.97c-1.31-0.17-2.29-1.28-2.29-2.6v-2.65
		C61.54,55.33,62.71,54.15,64.16,54.15z"/>
	<circle class="st1" cx="75.68" cy="38.4" r="8.46"/>
	<circle class="st2" cx="75.68" cy="75.11" r="67.68"/>
</g>
</svg>
